# xmcd
#
# Track frame offsets:
#	150
#	16374
#	31743
#	43680
#	54180
#	74591
#	90212
#	106325
#	112977
#	126760
#
# Disc length: 1904 seconds
#
# Revision: 1
# Processed by: cddbd v1.4PL0 Copyright (c) Steve Scherf et al.
# Submitted via: audiograbber 1.82.02
#
DISCID=74076e0a
DTITLE=Joel Frye - Adrift
DYEAR=2002
DGENRE=
TTITLE0=Ballad to Ben
TTITLE1=What Do I Say
TTITLE2=Lady Chasing Rainbows
TTITLE3=Triangular Blues
TTITLE4=Wolf Street
TTITLE5=Friend
TTITLE6=Woman Someone Wanted
TTITLE7=I Love My Gun
TTITLE8=Where's the Road
TTITLE9=Adrift
EXTD=All songs copyright 2002 by Joel Frye except (1) J. Frye/B.Purple and (5) 
EXTD=L.Crawford/J.Frye\nJoel can be contacted at wordesythe@juno.com
EXTT0=
EXTT1=
EXTT2=
EXTT3=
EXTT4=
EXTT5=
EXTT6=
EXTT7=
EXTT8=
EXTT9=
PLAYORDER=
